<svg id="visual" viewBox="0 0 900 600" width="900" height="600" xmlns="http://www.w3.org/2000/svg" xmlns:xlink="http://www.w3.org/1999/xlink" version="1.1"><path d="M0 85L18.8 86C37.7 87 75.3 89 112.8 85C150.3 81 187.7 71 225.2 69C262.7 67 300.3 73 337.8 70C375.3 67 412.7 55 450.2 55C487.7 55 525.3 67 562.8 68C600.3 69 637.7 59 675.2 58C712.7 57 750.3 65 787.8 66C825.3 67 862.7 61 881.3 58L900 55L900 0L881.3 0C862.7 0 825.3 0 787.8 0C750.3 0 712.7 0 675.2 0C637.7 0 600.3 0 562.8 0C525.3 0 487.7 0 450.2 0C412.7 0 375.3 0 337.8 0C300.3 0 262.7 0 225.2 0C187.7 0 150.3 0 112.8 0C75.3 0 37.7 0 18.8 0L0 0Z" fill="#444444"></path><path d="M0 181L18.8 187C37.7 193 75.3 205 112.8 208C150.3 211 187.7 205 225.2 191C262.7 177 300.3 155 337.8 147C375.3 139 412.7 145 450.2 150C487.7 155 525.3 159 562.8 169C600.3 179 637.7 195 675.2 194C712.7 193 750.3 175 787.8 168C825.3 161 862.7 165 881.3 167L900 169L900 53L881.3 56C862.7 59 825.3 65 787.8 64C750.3 63 712.7 55 675.2 56C637.7 57 600.3 67 562.8 66C525.3 65 487.7 53 450.2 53C412.7 53 375.3 65 337.8 68C300.3 71 262.7 65 225.2 67C187.7 69 150.3 79 112.8 83C75.3 87 37.7 85 18.8 84L0 83Z" fill="#3a3b3b"></path><path d="M0 223L18.8 235C37.7 247 75.3 271 112.8 276C150.3 281 187.7 267 225.2 249C262.7 231 300.3 209 337.8 205C375.3 201 412.7 215 450.2 223C487.7 231 525.3 233 562.8 235C600.3 237 637.7 239 675.2 233C712.7 227 750.3 213 787.8 215C825.3 217 862.7 235 881.3 244L900 253L900 167L881.3 165C862.7 163 825.3 159 787.8 166C750.3 173 712.7 191 675.2 192C637.7 193 600.3 177 562.8 167C525.3 157 487.7 153 450.2 148C412.7 143 375.3 137 337.8 145C300.3 153 262.7 175 225.2 189C187.7 203 150.3 209 112.8 206C75.3 203 37.7 191 18.8 185L0 179Z" fill="#303132"></path><path d="M0 307L18.8 315C37.7 323 75.3 339 112.8 335C150.3 331 187.7 307 225.2 293C262.7 279 300.3 275 337.8 275C375.3 275 412.7 279 450.2 287C487.7 295 525.3 307 562.8 307C600.3 307 637.7 295 675.2 281C712.7 267 750.3 251 787.8 253C825.3 255 862.7 275 881.3 285L900 295L900 251L881.3 242C862.7 233 825.3 215 787.8 213C750.3 211 712.7 225 675.2 231C637.7 237 600.3 235 562.8 233C525.3 231 487.7 229 450.2 221C412.7 213 375.3 199 337.8 203C300.3 207 262.7 229 225.2 247C187.7 265 150.3 279 112.8 274C75.3 269 37.7 245 18.8 233L0 221Z" fill="#26282a"></path><path d="M0 427L18.8 446C37.7 465 75.3 503 112.8 507C150.3 511 187.7 481 225.2 470C262.7 459 300.3 467 337.8 470C375.3 473 412.7 471 450.2 464C487.7 457 525.3 445 562.8 433C600.3 421 637.7 409 675.2 410C712.7 411 750.3 425 787.8 433C825.3 441 862.7 443 881.3 444L900 445L900 293L881.3 283C862.7 273 825.3 253 787.8 251C750.3 249 712.7 265 675.2 279C637.7 293 600.3 305 562.8 305C525.3 305 487.7 293 450.2 285C412.7 277 375.3 273 337.8 273C300.3 273 262.7 277 225.2 291C187.7 305 150.3 329 112.8 333C75.3 337 37.7 321 18.8 313L0 305Z" fill="#1c2022"></path><path d="M0 601L18.8 601C37.7 601 75.3 601 112.8 601C150.3 601 187.7 601 225.2 601C262.7 601 300.3 601 337.8 601C375.3 601 412.7 601 450.2 601C487.7 601 525.3 601 562.8 601C600.3 601 637.7 601 675.2 601C712.7 601 750.3 601 787.8 601C825.3 601 862.7 601 881.3 601L900 601L900 443L881.3 442C862.7 441 825.3 439 787.8 431C750.3 423 712.7 409 675.2 408C637.7 407 600.3 419 562.8 431C525.3 443 487.7 455 450.2 462C412.7 469 375.3 471 337.8 468C300.3 465 262.7 457 225.2 468C187.7 479 150.3 509 112.8 505C75.3 501 37.7 463 18.8 444L0 425Z" fill="#13171a"></path></svg>